<svg width="156" height="156" viewBox="0 0 156 156" fill="none" xmlns="http://www.w3.org/2000/svg">
<path fill-rule="evenodd" clip-rule="evenodd" d="M0 31.2C0 13.9687 13.9687 0 31.2 0H124.8C142.031 0 156 13.9687 156 31.2V124.8C156 142.031 142.031 156 124.8 156H31.2C13.9687 156 0 142.031 0 124.8V31.2ZM31.2 15.6C22.5844 15.6 15.6 22.5844 15.6 31.2V124.8C15.6 133.416 22.5844 140.4 31.2 140.4H78V85.8H70.2C65.8921 85.8 62.4 82.3079 62.4 78C62.4 73.6921 65.8921 70.2 70.2 70.2H78V58.5C78 43.4226 90.2226 31.2 105.3 31.2H109.98C114.288 31.2 117.78 34.6922 117.78 39C117.78 43.3078 114.288 46.8 109.98 46.8H105.3C98.8385 46.8 93.6 52.0382 93.6 58.5V70.2H109.98C114.288 70.2 117.78 73.6921 117.78 78C117.78 82.3079 114.288 85.8 109.98 85.8H93.6V140.4H124.8C133.416 140.4 140.4 133.416 140.4 124.8V31.2C140.4 22.5844 133.416 15.6 124.8 15.6H31.2Z" fill="black"/>
</svg>
