<svg width="156" height="156" viewBox="0 0 156 156" fill="none" xmlns="http://www.w3.org/2000/svg">
<path fill-rule="evenodd" clip-rule="evenodd" d="M45.7833 0.957284C33.0858 1.53019 22.0803 4.63456 13.1937 13.4837C4.27592 22.3793 1.2101 33.4284 0.635766 45.9937C0.278744 53.8365 -1.80893 113.086 4.24488 128.625C8.32733 139.107 16.3678 147.167 26.9465 151.263C31.8827 153.183 37.5175 154.483 45.7833 154.862C114.898 157.99 140.518 156.287 151.321 128.625C153.238 123.701 154.558 118.071 154.923 109.826C158.081 40.5342 154.411 25.5149 142.365 13.4837C132.811 3.95323 121.572 -2.53437 45.7833 0.957284ZM46.4196 140.926C38.8523 140.586 34.7467 139.325 32.0069 138.264C25.1149 135.585 19.9381 130.43 17.276 123.578C12.6658 111.772 14.1948 55.6959 14.6062 46.6222C15.0098 37.7342 16.8103 29.6113 23.0815 23.3403C30.8428 15.5982 40.8703 11.8039 109.146 14.8853C118.056 15.2878 126.198 17.0847 132.485 23.3403C140.246 31.0823 144.096 41.187 140.96 109.201C140.619 116.749 139.354 120.845 138.29 123.578C131.266 141.579 115.107 144.077 46.4196 140.926ZM109.899 36.5789C109.899 41.7042 114.067 45.8719 119.213 45.8719C124.359 45.8719 128.534 41.7042 128.534 36.5789C128.534 31.4537 124.359 27.2898 119.213 27.2898C114.067 27.2898 109.899 31.4537 109.899 36.5789ZM37.9288 77.9058C37.9288 99.8623 55.7721 117.664 77.7831 117.664C99.7942 117.664 117.637 99.8623 117.637 77.9058C117.637 55.9494 99.7942 38.1595 77.7831 38.1595C55.7721 38.1595 37.9288 55.9494 37.9288 77.9058ZM51.9147 77.9058C51.9147 63.6605 63.4946 52.1027 77.7831 52.1027C92.0717 52.1027 103.652 63.6605 103.652 77.9058C103.652 92.159 92.0717 103.72 77.7831 103.72C63.4946 103.72 51.9147 92.159 51.9147 77.9058Z" fill="black"/>
</svg>
